<svg width="42" height="38" viewBox="0 0 42 38" fill="none" xmlns="http://www.w3.org/2000/svg">
<g clip-path="url(#clip0_49789_3069)">
<path d="M29.6695 32.9933C29.6695 32.9933 29.6519 33.005 29.6402 33.0108L22.692 37.0206C21.6968 37.5942 20.4734 37.5942 19.4783 37.0206L12.53 33.0108C12.53 33.0108 12.5124 33.005 12.5007 32.9933C10.8383 32.0098 10.8383 29.5396 12.5007 28.5562C12.5124 28.5503 12.5183 28.5445 12.53 28.5386L19.4783 24.5289C20.4734 23.9552 21.6968 23.9552 22.692 24.5289L29.6402 28.5386C29.6402 28.5386 29.6578 28.5445 29.6695 28.5562C31.332 29.5396 31.332 32.0098 29.6695 32.9933Z" fill="url(#paint0_linear_49789_3069)"/>
<path d="M18.6529 21.9767C18.6529 21.9767 18.6354 21.9884 18.6236 21.9942L11.6753 26.004C10.6802 26.5776 9.45681 26.5776 8.46169 26.004L1.5134 21.9942C1.5134 21.9942 1.49584 21.9884 1.48413 21.9767C-0.178305 20.9932 -0.178305 18.523 1.48413 17.5396C1.49584 17.5337 1.50169 17.5279 1.5134 17.522L8.46169 13.5123C9.45681 12.9386 10.6802 12.9386 11.6753 13.5123L18.6236 17.522C18.6236 17.522 18.6412 17.5279 18.6529 17.5396C20.3153 18.523 20.3153 20.9932 18.6529 21.9767Z" fill="url(#paint1_linear_49789_3069)"/>
<path d="M40.6861 21.9767C40.6861 21.9767 40.6686 21.9884 40.6568 21.9942L33.7086 26.004C32.7134 26.5776 31.49 26.5776 30.4949 26.004L23.5466 21.9942C23.5466 21.9942 23.529 21.9884 23.5173 21.9767C21.8549 20.9932 21.8549 18.523 23.5173 17.5396C23.529 17.5337 23.5349 17.5279 23.5466 17.522L30.4949 13.5123C31.49 12.9386 32.7134 12.9386 33.7086 13.5123L40.6568 17.522C40.6568 17.522 40.6744 17.5279 40.6861 17.5396C42.3485 18.523 42.3485 20.9932 40.6861 21.9767Z" fill="#6F6AF8"/>
<path d="M29.6695 10.9601C29.6695 10.9601 29.6519 10.9718 29.6402 10.9776L22.692 14.9874C21.6968 15.5611 20.4734 15.5611 19.4783 14.9874L12.53 10.9776C12.53 10.9776 12.5124 10.9718 12.5007 10.9601C10.8383 9.97666 10.8383 7.50641 12.5007 6.52299C12.5124 6.51714 12.5183 6.51129 12.53 6.50543L19.4783 2.49567C20.4734 1.92202 21.6968 1.92202 22.692 2.49567L29.6402 6.50543C29.6402 6.50543 29.6578 6.51129 29.6695 6.52299C31.332 7.50641 31.332 9.97666 29.6695 10.9601Z" fill="#6F6AF8"/>
</g>
<defs>
<linearGradient id="paint0_linear_49789_3069" x1="11.2598" y1="30.7747" x2="30.9163" y2="30.7747" gradientUnits="userSpaceOnUse">
<stop stop-color="#84F8B2"/>
<stop offset="1" stop-color="#8CDCE2"/>
</linearGradient>
<linearGradient id="paint1_linear_49789_3069" x1="0.237305" y1="19.7581" x2="19.8997" y2="19.7581" gradientUnits="userSpaceOnUse">
<stop stop-color="#84F8B2"/>
<stop offset="1" stop-color="#8CDCE2"/>
</linearGradient>
<clipPath id="clip0_49789_3069">
<rect width="42" height="38" fill="white"/>
</clipPath>
</defs>
</svg>
