<svg width="20" height="20" viewBox="0 0 20 20" fill="none" xmlns="http://www.w3.org/2000/svg">
<path d="M19.8001 10.222C19.8001 9.39982 19.7334 8.79982 19.589 8.17761H10.2002V11.8887H15.7112C15.6002 12.8109 15.0002 14.1998 13.6668 15.1331L13.6481 15.2573L16.6167 17.557L16.8224 17.5776C18.7112 15.8331 19.8001 13.2664 19.8001 10.222Z" fill="#4285F4"/>
<path d="M10.2004 20.0001C12.9003 20.0001 15.167 19.1111 16.8226 17.5779L13.667 15.1334C12.8226 15.7223 11.6892 16.1334 10.2004 16.1334C7.55598 16.1334 5.31157 14.389 4.5115 11.9779L4.39422 11.9879L1.30746 14.3767L1.26709 14.489C2.91151 17.7556 6.28927 20.0001 10.2004 20.0001Z" fill="#34A853"/>
<path d="M4.51124 11.9777C4.30013 11.3555 4.17796 10.6888 4.17796 9.99995C4.17796 9.31102 4.30013 8.64438 4.50013 8.02217L4.49454 7.88966L1.36909 5.4624L1.26683 5.51104C0.589086 6.86661 0.200195 8.38885 0.200195 9.99995C0.200195 11.611 0.589086 13.1332 1.26683 14.4888L4.51124 11.9777Z" fill="#FBBC05"/>
<path d="M10.2004 3.86662C12.0781 3.86662 13.3448 4.67772 14.067 5.35554L16.8892 2.59998C15.1559 0.988887 12.9003 0 10.2004 0C6.28927 0 2.91151 2.24441 1.26709 5.51103L4.50039 8.02216C5.31157 5.61107 7.55598 3.86662 10.2004 3.86662Z" fill="#EB4335"/>
</svg>
