<svg width="47" height="46" viewBox="0 0 47 46" fill="none" xmlns="http://www.w3.org/2000/svg">
<g clip-path="url(#clip0_49789_3160)">
<mask id="mask0_49789_3160" style="mask-type:luminance" maskUnits="userSpaceOnUse" x="0" y="0" width="47" height="46">
<path d="M23.2368 46C35.9394 46 46.2368 35.7025 46.2368 23C46.2368 10.2975 35.9394 0 23.2368 0C10.5343 0 0.236816 10.2975 0.236816 23C0.236816 35.7025 10.5343 46 23.2368 46Z" fill="white"/>
</mask>
<g mask="url(#mask0_49789_3160)">
<path d="M10.1196 93.0781C37.4103 93.0781 59.5337 70.9547 59.5337 43.6641C59.5337 16.3734 37.4103 -5.75 10.1196 -5.75C-17.171 -5.75 -39.2944 16.3734 -39.2944 43.6641C-39.2944 70.9547 -17.171 93.0781 10.1196 93.0781Z" fill="url(#paint0_radial_49789_3160)"/>
</g>
<path d="M29.7056 18.3281C30.698 18.3281 31.5024 17.5236 31.5024 16.5312C31.5024 15.5389 30.698 14.7344 29.7056 14.7344C28.7132 14.7344 27.9087 15.5389 27.9087 16.5312C27.9087 17.5236 28.7132 18.3281 29.7056 18.3281Z" fill="white"/>
<path d="M23.2368 17.25C22.0996 17.25 20.9879 17.5872 20.0423 18.2191C19.0967 18.8509 18.3597 19.7489 17.9245 20.7996C17.4893 21.8502 17.3754 23.0064 17.5973 24.1218C17.8192 25.2372 18.3668 26.2617 19.171 27.0659C19.9751 27.87 20.9997 28.4177 22.1151 28.6395C23.2304 28.8614 24.3866 28.7475 25.4373 28.3123C26.4879 27.8771 27.386 27.1401 28.0178 26.1945C28.6496 25.2489 28.9868 24.1372 28.9868 23C28.9868 21.475 28.381 20.0125 27.3027 18.9341C26.2243 17.8558 24.7618 17.25 23.2368 17.25ZM23.2368 25.875C22.6682 25.875 22.1123 25.7064 21.6396 25.3905C21.1668 25.0746 20.7983 24.6256 20.5807 24.1002C20.3631 23.5749 20.3061 22.9968 20.4171 22.4391C20.528 21.8814 20.8018 21.3691 21.2039 20.9671C21.606 20.565 22.1182 20.2912 22.6759 20.1802C23.2336 20.0693 23.8117 20.1262 24.337 20.3438C24.8624 20.5614 25.3114 20.9299 25.6273 21.4027C25.9432 21.8755 26.1118 22.4314 26.1118 23C26.1118 23.7625 25.8089 24.4938 25.2698 25.0329C24.7306 25.5721 23.9993 25.875 23.2368 25.875Z" fill="white"/>
<path d="M30.4243 11.5H16.0493C13.6676 11.5 11.7368 13.4308 11.7368 15.8125V30.1875C11.7368 32.5692 13.6676 34.5 16.0493 34.5H30.4243C32.806 34.5 34.7368 32.5692 34.7368 30.1875V15.8125C34.7368 13.4308 32.806 11.5 30.4243 11.5Z" stroke="white" stroke-width="3" stroke-miterlimit="10"/>
</g>
<defs>
<radialGradient id="paint0_radial_49789_3160" cx="0" cy="0" r="1" gradientUnits="userSpaceOnUse" gradientTransform="translate(10.1196 43.6641) scale(49.4141)">
<stop stop-color="#FFD676"/>
<stop offset="0.25" stop-color="#F2A454"/>
<stop offset="0.38" stop-color="#F05C3C"/>
<stop offset="0.7" stop-color="#C22F86"/>
<stop offset="0.96" stop-color="#6666AD"/>
<stop offset="0.99" stop-color="#5C6CB2"/>
</radialGradient>
<clipPath id="clip0_49789_3160">
<rect width="46" height="46" fill="white" transform="translate(0.236816)"/>
</clipPath>
</defs>
</svg>
