<svg width="47" height="48" viewBox="0 0 47 48" fill="none" xmlns="http://www.w3.org/2000/svg">
<path d="M25.6749 21.5267H25.7099V21.4706L25.6749 21.5267ZM25.6749 21.5267H25.7099V21.4706L25.6749 21.5267ZM25.6749 21.5267H25.7099V21.4706L25.6749 21.5267ZM25.6749 21.5267H25.7099V21.4706L25.6749 21.5267ZM25.6749 21.5267H25.7099V21.4706L25.6749 21.5267ZM25.6749 21.5267H25.7099V21.4706L25.6749 21.5267ZM25.6749 21.5267H25.7099V21.4706L25.6749 21.5267ZM25.6749 21.5267H25.7099V21.4706L25.6749 21.5267ZM25.6749 21.5267H25.7099V21.4706L25.6749 21.5267ZM25.6749 21.5267H25.7099V21.4706L25.6749 21.5267ZM25.6749 21.5267H25.7099V21.4706L25.6749 21.5267ZM25.6749 21.5267H25.7099V21.4706L25.6749 21.5267ZM25.6749 21.5267H25.7099V21.4706L25.6749 21.5267ZM25.6749 21.5267H25.7099V21.4706L25.6749 21.5267ZM25.6749 21.5267H25.7099V21.4706L25.6749 21.5267ZM25.6749 21.5267H25.7099V21.4706L25.6749 21.5267ZM23.4 0.922729C18.8836 0.922729 14.4687 2.28876 10.7135 4.84809C6.95831 7.40741 4.03149 11.0451 2.30316 15.3011C0.574835 19.5571 0.122626 24.2403 1.00372 28.7584C1.88481 33.2766 4.05964 37.4267 7.25317 40.6842C10.4467 43.9416 14.5155 46.1599 18.9451 47.0586C23.3746 47.9573 27.966 47.496 32.1385 45.7332C36.3111 43.9703 39.8774 40.9849 42.3866 37.1546C44.8957 33.3243 46.2349 28.8211 46.2349 24.2144C46.2283 18.0392 43.8204 12.1187 39.5394 7.75216C35.2585 3.38559 29.4541 0.929479 23.4 0.922729ZM17.69 34.7C17.6886 34.8033 17.6475 34.9019 17.5754 34.9744C17.5034 35.047 17.4062 35.0876 17.305 35.0876H12.905C12.8042 35.0876 12.7075 35.0468 12.6362 34.9741C12.565 34.9014 12.525 34.8028 12.525 34.7V19.6193C12.5243 19.568 12.5336 19.517 12.5524 19.4694C12.5712 19.4218 12.5991 19.3785 12.6345 19.342C12.6698 19.3054 12.7119 19.2764 12.7584 19.2566C12.8048 19.2368 12.8546 19.2266 12.905 19.2266H17.305C17.3555 19.2266 17.4056 19.2368 17.4523 19.2565C17.499 19.2763 17.5414 19.3052 17.5772 19.3416C17.6129 19.3781 17.6413 19.4214 17.6606 19.469C17.68 19.5167 17.69 19.5678 17.69 19.6193V34.7ZM14.95 17.2121C14.4031 17.2121 13.8685 17.0467 13.4138 16.7368C12.9591 16.4269 12.6047 15.9865 12.3954 15.4711C12.1861 14.9558 12.1314 14.3887 12.2381 13.8416C12.3448 13.2945 12.6081 12.792 12.9948 12.3976C13.3815 12.0031 13.8742 11.7345 14.4105 11.6257C14.9469 11.5169 15.5028 11.5727 16.0081 11.7862C16.5133 11.9997 16.9451 12.3612 17.249 12.825C17.5528 13.2888 17.715 13.834 17.715 14.3918C17.7156 14.7624 17.6445 15.1294 17.5058 15.4719C17.3671 15.8144 17.1635 16.1256 16.9066 16.3876C16.6497 16.6496 16.3446 16.8573 16.0088 16.9988C15.6731 17.1403 15.3132 17.2128 14.95 17.2121ZM36.3099 34.7C36.3086 34.8033 36.2675 34.9019 36.1954 34.9744C36.1234 35.047 36.0262 35.0876 35.9249 35.0876H31.525C31.475 35.0876 31.4256 35.0776 31.3795 35.0581C31.3334 35.0386 31.2915 35.0101 31.2562 34.9741C31.221 34.9381 31.193 34.8954 31.1739 34.8484C31.1548 34.8013 31.145 34.7509 31.145 34.7V26.5961C31.145 24.4643 30.4 23.0261 28.53 23.0261C27.9472 23.0295 27.3798 23.2165 26.9054 23.5616C26.431 23.9067 26.0728 24.3931 25.8799 24.9539C25.7481 25.3685 25.6905 25.8038 25.7099 26.2391V34.7C25.7099 34.8042 25.6694 34.9041 25.5972 34.9777C25.525 35.0514 25.4271 35.0927 25.325 35.0927H20.9249C20.8746 35.0927 20.8248 35.0825 20.7784 35.0627C20.7319 35.0429 20.6898 35.0139 20.6545 34.9774C20.6191 34.9409 20.5912 34.8975 20.5724 34.8499C20.5536 34.8023 20.5443 34.7514 20.545 34.7C20.545 32.5478 20.6 22.0979 20.545 19.6397C20.5443 19.5884 20.5536 19.5375 20.5724 19.4898C20.5912 19.4422 20.6191 19.3989 20.6545 19.3624C20.6898 19.3258 20.7319 19.2968 20.7784 19.277C20.8248 19.2572 20.8746 19.247 20.9249 19.247H25.315C25.3657 19.2463 25.4161 19.256 25.4631 19.2755C25.5101 19.295 25.5528 19.3239 25.5887 19.3605C25.6246 19.3971 25.6529 19.4407 25.672 19.4886C25.6911 19.5366 25.7006 19.588 25.7 19.6397V21.491C26.1676 20.6629 26.8488 19.9813 27.6694 19.52C28.49 19.0588 29.4188 18.8356 30.3549 18.8747C33.75 18.8747 36.2999 21.1391 36.2999 26.0147L36.3099 34.7ZM25.7099 21.542V21.4859L25.6749 21.542H25.7099ZM25.6749 21.542H25.7099V21.4859L25.6749 21.542ZM25.6749 21.542H25.7099V21.4859L25.6749 21.542ZM25.6749 21.542H25.7099V21.4859L25.6749 21.542ZM25.6749 21.542H25.7099V21.4859L25.6749 21.542ZM25.6749 21.542H25.7099V21.4859L25.6749 21.542ZM25.6749 21.542H25.7099V21.4859L25.6749 21.542ZM25.6749 21.542H25.7099V21.4859L25.6749 21.542ZM25.6749 21.542H25.7099V21.4859L25.6749 21.542ZM25.6749 21.542H25.7099V21.4859L25.6749 21.542ZM25.6749 21.542H25.7099V21.4859L25.6749 21.542ZM25.6749 21.542H25.7099V21.4859L25.6749 21.542ZM25.6749 21.542H25.7099V21.4859L25.6749 21.542ZM25.6749 21.542H25.7099V21.4859L25.6749 21.542ZM25.6749 21.542H25.7099V21.4859L25.6749 21.542Z" fill="#0B49D1"/>
</svg>
