<svg width="49" height="48" viewBox="0 0 49 48" fill="none" xmlns="http://www.w3.org/2000/svg">
<rect x="0.541504" width="48" height="48" rx="24" fill="#1877F2"/>
<path d="M36.6753 16.4891C35.7632 16.8848 34.7987 17.1464 33.8117 17.2657C34.853 16.6436 35.6333 15.665 36.0079 14.5113C35.0294 15.0938 33.9582 15.5042 32.841 15.7247C32.0942 14.9149 31.0998 14.3758 30.0136 14.192C28.9274 14.0083 27.811 14.1902 26.8394 14.7093C25.8678 15.2285 25.0959 16.0554 24.6449 17.0604C24.1939 18.0655 24.0893 19.1918 24.3474 20.2627C22.3689 20.1627 20.4335 19.6475 18.6671 18.7507C16.9007 17.8539 15.3427 16.5955 14.0943 15.0573C13.6564 15.822 13.4264 16.6879 13.427 17.569C13.4254 18.3873 13.6262 19.1933 14.0115 19.9152C14.3968 20.6371 14.9546 21.2525 15.6353 21.7067C14.8442 21.6851 14.0699 21.4728 13.3784 21.0878V21.1485C13.3843 22.295 13.7861 23.4043 14.5157 24.2887C15.2454 25.1731 16.2581 25.7783 17.3826 26.002C16.9497 26.1338 16.5003 26.2032 16.0479 26.2083C15.7347 26.2046 15.4223 26.1762 15.1135 26.1234C15.4338 27.1096 16.0535 27.9715 16.8864 28.5891C17.7193 29.2068 18.7241 29.5494 19.7608 29.5694C18.0101 30.9469 15.8487 31.6987 13.6211 31.7049C13.2155 31.7062 12.8102 31.6819 12.4077 31.6321C14.6821 33.1006 17.3326 33.8802 20.0399 33.8769C21.9081 33.8963 23.7615 33.5432 25.4917 32.8383C27.222 32.1334 28.7944 31.0908 30.1172 29.7714C31.44 28.452 32.4867 26.8822 33.196 25.1538C33.9053 23.4253 34.2631 21.5729 34.2485 19.7046C34.2485 19.4983 34.2485 19.2799 34.2485 19.0615C35.2007 18.3514 36.0219 17.481 36.6753 16.4891Z" fill="#FCFDFF"/>
</svg>
